<svg width="150" height="151" viewBox="0 0 150 151" fill="none" xmlns="http://www.w3.org/2000/svg">
<path d="M75.39 141.122C112.861 141.122 143.238 124.279 143.238 103.503C143.238 82.7262 112.861 65.8835 75.39 65.8835C37.9186 65.8835 7.54199 82.7262 7.54199 103.503C7.54199 124.279 37.9186 141.122 75.39 141.122Z" fill="#F0F0F0"/>
<path d="M55.233 112.732L97.989 87.989C98.5013 87.6535 98.9277 87.2018 99.2336 86.6705C99.5395 86.1392 99.7164 85.5432 99.75 84.9307V69.88C99.7164 69.2675 99.5395 68.6715 99.2336 68.1402C98.9277 67.6089 98.5013 67.1572 97.989 66.8217L68.457 49.7291C67.9107 49.4517 67.3069 49.3071 66.6945 49.3071C66.0821 49.3071 65.4783 49.4517 64.932 49.7291L22.179 74.4719C21.6666 74.8074 21.2403 75.2591 20.9344 75.7904C20.6284 76.3216 20.4515 76.9176 20.418 77.5302V92.5809C20.4511 93.1939 20.6278 93.7905 20.9337 94.3224C21.2396 94.8542 21.6663 95.3064 22.179 95.6422L51.711 112.732C52.2569 113.009 52.8601 113.153 53.472 113.153C54.0838 113.153 54.6871 113.009 55.233 112.732Z" fill="#2AB691"/>
<path d="M53.472 111.712V96.6616C53.4384 96.0491 53.2615 95.4531 52.9556 94.9218C52.6497 94.3905 52.2233 93.9388 51.711 93.6033L22.179 76.5107C21.204 75.9484 20.418 76.4055 20.418 77.5301V92.5809C20.4511 93.1939 20.6278 93.7905 20.9337 94.3224C21.2396 94.8542 21.6663 95.3063 22.179 95.6422L51.711 112.732C52.683 113.294 53.472 112.84 53.472 111.712Z" fill="#263238"/>
<path d="M98.934 67.6908L52.659 94.4724C52.4036 94.1226 52.0813 93.8271 51.711 93.6033L22.182 76.5137C21.3 76.0025 20.574 76.3213 20.442 77.2204C20.5184 76.6644 20.7133 76.1314 21.0136 75.6577C21.3138 75.1839 21.7123 74.7805 22.182 74.4749L64.932 49.7261C65.4783 49.4487 66.0821 49.3041 66.6945 49.3041C67.3069 49.3041 67.9107 49.4487 68.457 49.7261L97.986 66.8247C98.3575 67.0457 98.6801 67.3404 98.934 67.6908Z" fill="#2AB691"/>
<path d="M98.934 67.6908L52.659 94.4724C52.4036 94.1226 52.0813 93.8271 51.711 93.6033L22.182 76.5137C21.3 76.0025 20.574 76.3213 20.442 77.2204C20.5184 76.6644 20.7133 76.1314 21.0136 75.6577C21.3138 75.1839 21.7123 74.7805 22.182 74.4749L64.932 49.7261C65.4783 49.4487 66.0821 49.3041 66.6945 49.3041C67.3069 49.3041 67.9107 49.4487 68.457 49.7261L97.986 66.8247C98.3575 67.0457 98.6801 67.3404 98.934 67.6908Z" fill="#455A64"/>
<path d="M99.747 69.88V84.9157C99.7165 85.5289 99.5409 86.1261 99.2347 86.6579C98.9285 87.1897 98.5005 87.6408 97.986 87.974L55.236 112.72C54.7338 112.974 54.1829 113.117 53.6207 113.139C53.0585 113.161 52.4982 113.061 51.978 112.846C52.821 113.195 53.478 112.72 53.478 111.697V96.6616C53.4433 95.8643 53.1589 95.0983 52.665 94.4724L98.934 67.6908C99.4277 68.3168 99.7121 69.0828 99.747 69.88Z" fill="#37474F"/>
<path d="M90.621 74.938V78.9194C90.5945 79.4099 90.4534 79.8873 90.2089 80.313C89.9645 80.7387 89.6237 81.1009 89.214 81.3703L65.214 95.2693C64.437 95.7234 63.804 95.3565 63.804 94.4573V90.4759C63.805 89.735 63.5718 89.0128 63.138 88.413L89.973 72.8811C90.3981 73.482 90.6247 74.2013 90.621 74.938Z" fill="#2AB691"/>
<path opacity="0.15" d="M90.621 74.938V78.9194C90.5945 79.4099 90.4534 79.8873 90.2089 80.313C89.9645 80.7387 89.6237 81.1009 89.214 81.3703L65.214 95.2693C64.437 95.7234 63.804 95.3565 63.804 94.4573V90.4759C63.805 89.735 63.5718 89.0128 63.138 88.413L89.973 72.8811C90.3981 73.482 90.6247 74.2013 90.621 74.938Z" fill="black"/>
<path d="M89.961 72.8811L63.126 88.41C62.8371 88.0019 62.4636 87.6613 62.031 87.4116L42.063 75.8552C41.286 75.4071 41.286 74.6734 42.063 74.2253L66.063 60.3203C66.5003 60.0993 66.9832 59.9841 67.473 59.9841C67.9627 59.9841 68.4457 60.0993 68.883 60.3203L88.863 71.8707C89.2975 72.124 89.6721 72.4687 89.961 72.8811Z" fill="#2AB691"/>
<path d="M63.345 72.9082C61.407 74.0298 61.407 75.8492 63.345 76.9708C65.283 78.0925 68.427 78.0925 70.365 76.9708C72.303 75.8492 72.306 74.0328 70.365 72.9082C68.424 71.7835 65.283 71.7865 63.345 72.9082Z" fill="#FAFAFA"/>
<path d="M59.94 103.668C59.9613 103.248 60.081 102.838 60.2895 102.472C60.4979 102.107 60.7893 101.795 61.14 101.563L93.963 82.5671C94.632 82.1822 95.163 82.4949 95.163 83.2708V89.6128L59.94 110.01V103.668Z" fill="#263238"/>
<path d="M61.089 105.518V103.605L94.146 84.4767V86.3892L61.089 105.518Z" fill="black"/>
<path d="M30.3329 73.5788L63.3899 54.4473L65.0069 55.3886L31.9559 74.517L30.3329 73.5788Z" fill="#263238"/>
<path d="M31.101 74.0298L26.349 52.9798L59.406 33.8484L64.155 54.9014L31.101 74.0298Z" fill="#37474F"/>
<path d="M26.349 52.9798L25.584 52.5288L30.333 73.5788L31.101 74.0299L26.349 52.9798Z" fill="#263238"/>
<path d="M25.584 52.5288L26.349 52.9799L59.406 33.8484L58.641 33.3973L25.584 52.5288Z" fill="#455A64"/>
<path d="M32.058 73.4765L26.319 48.0181L56.592 30.4984L62.331 55.9569L32.058 73.4765Z" fill="#E0E0E0"/>
<path d="M32.901 73.9697L27.159 48.5112L57.435 30.9916L63.174 56.4501L32.901 73.9697Z" fill="#FAFAFA"/>
<path d="M27.159 48.5112L26.319 48.0181L32.253 74.3456L32.901 73.9697L27.159 48.5112Z" fill="#E0E0E0"/>
<path d="M26.319 48.0181L27.159 48.5112L57.435 30.9916L56.592 30.4984L26.319 48.0181Z" fill="#EBEBEB"/>
<path d="M57.993 89.0746V88.6927C57.9845 88.6041 57.952 88.5195 57.8992 88.448C57.8463 88.3765 57.775 88.3207 57.693 88.2867L56.898 87.8266C56.6795 87.7154 56.438 87.6575 56.193 87.6575C55.948 87.6575 55.7064 87.7154 55.488 87.8266L52.488 89.5617C52.4057 89.5962 52.3343 89.6525 52.2815 89.7246C52.2286 89.7966 52.1963 89.8817 52.188 89.9707V90.3586C52.1985 90.4459 52.2317 90.5288 52.2844 90.599C52.3371 90.6692 52.4073 90.7243 52.488 90.7586L53.283 91.2187C53.5014 91.3299 53.743 91.3878 53.988 91.3878C54.233 91.3878 54.4745 91.3299 54.693 91.2187L57.693 89.4836C57.7743 89.4493 57.8449 89.3938 57.8977 89.323C57.9504 89.2521 57.9833 89.1685 57.993 89.0806V89.0746Z" fill="#263238"/>
<path d="M53.295 90.8368L52.5 90.3767C52.113 90.1511 52.113 89.7752 52.5 89.5617L55.5 87.8266C55.7184 87.7154 55.96 87.6575 56.205 87.6575C56.45 87.6575 56.6915 87.7154 56.91 87.8266L57.705 88.2867C58.092 88.5092 58.092 88.8881 57.705 89.1016L54.705 90.8368C54.4861 90.9466 54.2447 91.0038 54 91.0038C53.7552 91.0038 53.5138 90.9466 53.295 90.8368Z" fill="#37474F"/>
<path d="M54.042 90.515C53.8329 90.519 53.6264 90.4693 53.442 90.3707C53.3814 90.3404 53.3276 90.2981 53.2838 90.2465C53.2399 90.1948 53.207 90.1347 53.187 90.0699C53.1752 90.0243 53.1729 89.9768 53.1801 89.9303C53.1873 89.8837 53.2039 89.8392 53.229 89.7993C53.233 89.7919 53.2385 89.7854 53.2451 89.7802C53.2517 89.775 53.2593 89.7711 53.2674 89.7689C53.2755 89.7666 53.284 89.766 53.2923 89.7671C53.3007 89.7682 53.3087 89.771 53.316 89.7752C53.3305 89.7846 53.341 89.799 53.3454 89.8157C53.3499 89.8324 53.3479 89.8501 53.34 89.8655C53.3231 89.8902 53.3116 89.9184 53.3065 89.9479C53.3013 89.9775 53.3025 90.0078 53.31 90.0369C53.3447 90.1332 53.4158 90.2121 53.508 90.2564C53.6733 90.3409 53.8563 90.3849 54.042 90.3849C54.2276 90.3849 54.4106 90.3409 54.576 90.2564C54.6352 90.2397 54.6873 90.2041 54.7245 90.155C54.7616 90.1058 54.7817 90.0459 54.7817 89.9842C54.7817 89.9226 54.7616 89.8626 54.7245 89.8135C54.6873 89.7644 54.6352 89.7288 54.576 89.7121C54.3345 89.5886 54.0579 89.5525 53.793 89.6098C53.776 89.612 53.7589 89.608 53.7446 89.5986C53.7303 89.5893 53.7198 89.5751 53.715 89.5587C53.7122 89.5417 53.7159 89.5242 53.7253 89.5097C53.7347 89.4952 53.7493 89.4848 53.766 89.4805C54.0631 89.418 54.3726 89.4605 54.642 89.6008C54.72 89.6299 54.7874 89.6822 54.8349 89.7507C54.8825 89.8193 54.908 89.9008 54.908 89.9842C54.908 90.0677 54.8825 90.1492 54.8349 90.2177C54.7874 90.2863 54.72 90.3386 54.642 90.3677C54.4578 90.4674 54.2512 90.5181 54.042 90.515Z" fill="#FAFAFA"/>
<path d="M54.069 90.067H54.039L53.298 89.6369C53.2909 89.6326 53.2847 89.6269 53.2797 89.6202C53.2748 89.6135 53.2713 89.6058 53.2693 89.5977C53.2674 89.5896 53.2671 89.5812 53.2684 89.573C53.2697 89.5647 53.2726 89.5568 53.277 89.5497C53.281 89.5423 53.2865 89.5358 53.2931 89.5306C53.2997 89.5254 53.3073 89.5215 53.3154 89.5193C53.3235 89.5171 53.332 89.5165 53.3403 89.5176C53.3487 89.5187 53.3567 89.5214 53.364 89.5257L54.102 89.9527C54.1098 89.9567 54.1166 89.9624 54.1221 89.9692C54.1276 89.9761 54.1316 89.984 54.1338 89.9925C54.1361 90.001 54.1366 90.0098 54.1352 90.0185C54.1339 90.0272 54.1307 90.0355 54.126 90.0429C54.1193 90.0515 54.1106 90.0582 54.1006 90.0624C54.0906 90.0666 54.0797 90.0682 54.069 90.067Z" fill="#FAFAFA"/>
<path d="M49.353 89.9918L55.953 86.1667C55.9964 86.1509 56.0339 86.1221 56.0605 86.0841C56.087 86.0462 56.1012 86.001 56.1012 85.9547C56.1012 85.9084 56.087 85.8632 56.0605 85.8252C56.0339 85.7873 55.9964 85.7585 55.953 85.7427L52.131 83.5324C52.0184 83.4754 51.8941 83.4456 51.768 83.4456C51.6418 83.4456 51.5175 83.4754 51.405 83.5324L44.805 87.3605C44.7612 87.3756 44.7232 87.4039 44.6963 87.4417C44.6694 87.4794 44.655 87.5246 44.655 87.571C44.655 87.6174 44.6694 87.6626 44.6963 87.7004C44.7232 87.7381 44.7612 87.7665 44.805 87.7815L48.624 89.9918C48.7369 90.0494 48.8618 90.0794 48.9885 90.0794C49.1152 90.0794 49.24 90.0494 49.353 89.9918Z" fill="#263238"/>
<path d="M52.116 84.0797C52.0036 84.0219 51.8792 83.9918 51.753 83.9918C51.6267 83.9918 51.5023 84.0219 51.39 84.0797L44.916 87.8416L48.627 89.9918C48.7395 90.0488 48.8638 90.0786 48.99 90.0786C49.1161 90.0786 49.2404 90.0488 49.353 89.9918L55.83 86.2268L52.116 84.0797Z" fill="#2AB691"/>
<g opacity="0.4">
<path d="M47.082 88.0191C47.2542 87.9136 47.4504 87.8541 47.6521 87.8462C47.8538 87.8383 48.0541 87.8823 48.234 87.974C48.579 88.1725 48.564 88.4491 48.195 88.6626L47.877 88.8461L48.303 89.0926L48.021 89.255L46.482 88.3529L47.082 88.0191ZM47.754 88.7769L48.012 88.6265C48.264 88.4822 48.24 88.3258 47.943 88.1424C47.8239 88.0661 47.6862 88.0241 47.545 88.0209C47.4037 88.0177 47.2643 88.0535 47.142 88.1243L46.884 88.2717L47.754 88.7769Z" fill="black"/>
<path d="M47.94 87.5079L48.579 87.141C48.7264 87.0468 48.895 86.9908 49.0694 86.9782C49.2438 86.9656 49.4186 86.9968 49.578 87.0688C49.6273 87.0865 49.6707 87.1177 49.7034 87.1587C49.736 87.1998 49.7566 87.2492 49.7629 87.3013C49.7691 87.3535 49.7607 87.4063 49.7387 87.454C49.7166 87.5016 49.6817 87.5421 49.638 87.571C49.737 87.5537 49.8377 87.5486 49.938 87.556L50.691 87.6131L50.52 87.8417L49.797 87.7605C49.6039 87.7112 49.3997 87.7325 49.221 87.8206L49.134 87.8717L49.761 88.2356L49.476 88.398L47.94 87.5079ZM48.348 87.4146L49.014 87.8026L49.338 87.6131C49.518 87.5109 49.497 87.3605 49.29 87.2402C49.1949 87.1811 49.0853 87.1497 48.9735 87.1497C48.8616 87.1497 48.752 87.1811 48.657 87.2402L48.348 87.4146Z" fill="black"/>
<path d="M49.707 86.4975L51.246 87.3996L50.964 87.562L49.425 86.6598L49.707 86.4975Z" fill="black"/>
<path d="M50.253 86.1817L52.128 86.3621H52.194L51.732 86.0945C51.525 85.9742 51.132 85.7938 51.024 85.7336L51.225 85.6164L52.764 86.5185L52.569 86.6328L50.658 86.4493L50.556 86.4343L51.066 86.735L51.732 87.1199L51.546 87.2282C51.429 87.159 51.117 86.9485 50.91 86.8313L50.031 86.305L50.253 86.1817Z" fill="black"/>
<path d="M52.746 84.7413L52.902 84.8315C52.8 84.8887 52.5059 85.018 52.3619 85.1022L53.7779 85.9231L53.493 86.0885L52.077 85.2676C51.93 85.3518 51.708 85.5202 51.606 85.5683L51.45 85.4781L52.746 84.7413Z" fill="black"/>
</g>
<path d="M61.737 104.718C64.7051 105.292 67.5336 106.439 70.065 108.095C72.9336 109.958 75.3168 112.48 77.016 115.453C78.9231 118.765 81.6672 121.515 84.972 123.425L90.162 126.432V125.097L84.972 122.09C81.672 120.177 79.245 117.224 77.337 113.914C75.627 110.949 72.939 108.609 70.065 106.76C67.787 105.271 65.2687 104.189 62.622 103.563L61.749 104.068L61.737 104.718Z" fill="#E0E0E0"/>
<g opacity="0.05">
<path d="M61.737 104.718C64.7051 105.292 67.5336 106.439 70.065 108.095C72.9336 109.958 75.3168 112.48 77.016 115.453C78.9231 118.765 81.6672 121.515 84.972 123.425L90.162 126.432V125.097L84.972 122.09C81.672 120.177 79.245 117.224 77.337 113.914C75.627 110.949 72.939 108.609 70.065 106.76C67.787 105.271 65.2687 104.189 62.622 103.563L61.749 104.068L61.737 104.718Z" fill="black"/>
</g>
<path d="M120.36 107.608L90.162 125.106V126.429L120.36 108.922V107.608Z" fill="#EBEBEB"/>
<path d="M90.162 125.097L84.972 122.09C81.672 120.177 79.245 117.224 77.337 113.914C75.627 110.949 72.939 108.609 70.065 106.76C67.787 105.271 65.2687 104.189 62.622 103.563L92.811 86.0584C95.4604 86.6865 97.9815 87.7689 100.263 89.258C103.14 91.1074 105.744 93.5612 107.463 96.5293C109.371 99.8371 111.879 102.676 115.182 104.588L120.372 107.596L90.162 125.097Z" fill="#FAFAFA"/>
<path d="M68.325 103.509C68.263 103.51 68.2024 103.49 68.1529 103.452C68.1035 103.415 68.0678 103.362 68.0516 103.302C68.0355 103.242 68.0397 103.178 68.0637 103.121C68.0876 103.064 68.13 103.016 68.184 102.986L85.884 92.7163C85.9479 92.6816 86.0227 92.6732 86.0927 92.693C86.1626 92.7128 86.2221 92.7592 86.2584 92.8223C86.2948 92.8854 86.3051 92.9602 86.2873 93.0308C86.2695 93.1014 86.2249 93.1622 86.163 93.2004L68.463 103.47C68.4213 103.495 68.3736 103.509 68.325 103.509Z" fill="#E0E0E0"/>
<path d="M71.193 104.895C71.1313 104.895 71.0714 104.874 71.0226 104.836C70.9738 104.798 70.9387 104.746 70.9227 104.686C70.9067 104.626 70.9107 104.563 70.934 104.506C70.9574 104.448 70.9988 104.4 71.052 104.369L88.752 94.0995C88.7839 94.0812 88.8191 94.0693 88.8556 94.0645C88.8921 94.0598 88.9291 94.0623 88.9647 94.072C89.0002 94.0816 89.0335 94.0982 89.0626 94.1207C89.0917 94.1432 89.1162 94.1713 89.1345 94.2033C89.1528 94.2352 89.1647 94.2705 89.1694 94.3071C89.1741 94.3437 89.1716 94.3808 89.1619 94.4164C89.1523 94.452 89.1358 94.4854 89.1134 94.5146C89.0909 94.5438 89.0629 94.5683 89.031 94.5867L71.331 104.856C71.2893 104.881 71.2416 104.895 71.193 104.895Z" fill="#E0E0E0"/>
<path d="M73.8 106.564C73.7508 106.565 73.7023 106.553 73.6595 106.528C73.6167 106.504 73.5813 106.469 73.557 106.426C73.5382 106.394 73.5259 106.359 73.5209 106.322C73.5159 106.285 73.5182 106.248 73.5277 106.212C73.5372 106.176 73.5536 106.143 73.5762 106.113C73.5987 106.084 73.6269 106.059 73.659 106.041L91.359 95.7715C91.4229 95.7414 91.4957 95.7364 91.563 95.7575C91.6304 95.7786 91.6874 95.8243 91.7228 95.8855C91.7582 95.9466 91.7695 96.0189 91.7543 96.088C91.7392 96.1571 91.6987 96.218 91.641 96.2586L73.941 106.528C73.8976 106.551 73.8492 106.564 73.8 106.564Z" fill="#E0E0E0"/>
<path d="M76.326 108.621C76.2642 108.621 76.2042 108.601 76.1552 108.563C76.1062 108.526 76.0711 108.473 76.0553 108.413C76.0395 108.353 76.044 108.29 76.068 108.233C76.092 108.176 76.1342 108.128 76.188 108.098L93.888 97.8284C93.9198 97.8096 93.9551 97.7973 93.9917 97.7922C94.0283 97.7872 94.0656 97.7895 94.1013 97.799C94.137 97.8085 94.1705 97.825 94.1998 97.8476C94.2291 97.8702 94.2536 97.8984 94.272 97.9306C94.3044 97.9965 94.3117 98.0721 94.2923 98.143C94.273 98.214 94.2284 98.2753 94.167 98.3155L76.467 108.585C76.4236 108.608 76.3752 108.621 76.326 108.621Z" fill="#E0E0E0"/>
<path d="M78.525 111.009C78.4758 111.01 78.4272 110.997 78.3845 110.973C78.3417 110.949 78.3063 110.913 78.282 110.87C78.2632 110.838 78.2509 110.803 78.2459 110.766C78.2409 110.73 78.2431 110.692 78.2526 110.657C78.2621 110.621 78.2786 110.587 78.3012 110.558C78.3237 110.528 78.3519 110.504 78.384 110.485L96.084 100.216C96.1478 100.186 96.2206 100.181 96.288 100.202C96.3553 100.223 96.4124 100.269 96.4478 100.33C96.4832 100.391 96.4944 100.463 96.4793 100.533C96.4641 100.602 96.4237 100.663 96.366 100.703L78.666 110.973C78.6226 110.996 78.5742 111.008 78.525 111.009Z" fill="#E0E0E0"/>
<path d="M80.289 113.739C80.227 113.74 80.1665 113.72 80.117 113.683C80.0675 113.645 80.0318 113.592 80.0157 113.532C79.9995 113.472 80.0037 113.409 80.0277 113.351C80.0516 113.294 80.094 113.246 80.148 113.216L97.848 102.947C97.9119 102.912 97.9868 102.904 98.0567 102.923C98.1266 102.943 98.1861 102.989 98.2224 103.053C98.2588 103.116 98.2691 103.19 98.2513 103.261C98.2335 103.332 98.1889 103.393 98.127 103.431L80.427 113.703C80.3845 113.726 80.3372 113.738 80.289 113.739Z" fill="#E0E0E0"/>
<path d="M82.164 116.41C82.102 116.41 82.0415 116.391 81.992 116.353C81.9425 116.316 81.9068 116.263 81.8907 116.203C81.8745 116.143 81.8787 116.079 81.9027 116.022C81.9266 115.964 81.969 115.917 82.023 115.886L99.723 105.617C99.7869 105.582 99.8618 105.574 99.9317 105.594C100.002 105.613 100.061 105.66 100.097 105.723C100.134 105.786 100.144 105.861 100.126 105.931C100.108 106.002 100.064 106.063 100.002 106.101L82.302 116.37C82.2603 116.396 82.2127 116.409 82.164 116.41Z" fill="#E0E0E0"/>
<path d="M89.148 91.4172C89.0988 91.4182 89.0502 91.4059 89.0075 91.3815C88.9647 91.3572 88.9293 91.3217 88.905 91.2788C88.8862 91.2469 88.8739 91.2116 88.8689 91.1748C88.8639 91.1381 88.8662 91.1008 88.8757 91.065C88.8851 91.0292 88.9016 90.9956 88.9242 90.9662C88.9467 90.9369 88.9749 90.9123 89.007 90.8939L93.537 88.2627C93.6014 88.2256 93.6779 88.2157 93.7497 88.2351C93.8214 88.2546 93.8825 88.3018 93.9195 88.3664C93.9565 88.431 93.9663 88.5077 93.9469 88.5796C93.9275 88.6515 93.8804 88.7127 93.816 88.7498L89.286 91.3811C89.2435 91.404 89.1962 91.4164 89.148 91.4172Z" fill="#E0E0E0"/>
<path d="M92.013 92.8125C91.951 92.8134 91.8905 92.7935 91.841 92.7561C91.7915 92.7186 91.7558 92.6658 91.7397 92.6058C91.7235 92.5458 91.7277 92.4821 91.7517 92.4248C91.7756 92.3674 91.818 92.3197 91.872 92.2892L96.405 89.658C96.4367 89.6384 96.4721 89.6254 96.5089 89.6198C96.5458 89.6141 96.5834 89.6159 96.6196 89.6251C96.6557 89.6343 96.6896 89.6506 96.7194 89.6731C96.7491 89.6957 96.774 89.724 96.7927 89.7563C96.8113 89.7887 96.8233 89.8245 96.828 89.8616C96.8326 89.8986 96.8297 89.9363 96.8196 89.9722C96.8095 90.0082 96.7922 90.0418 96.7689 90.0709C96.7457 90.1001 96.7168 90.1243 96.684 90.1421L92.154 92.7764C92.1106 92.7998 92.0622 92.8122 92.013 92.8125Z" fill="#E0E0E0"/>
<path d="M94.617 94.4845C94.5677 94.4842 94.5193 94.4711 94.4767 94.4463C94.434 94.4215 94.3986 94.3859 94.374 94.3431C94.3553 94.3114 94.3431 94.2763 94.3381 94.2398C94.3331 94.2033 94.3354 94.1662 94.3449 94.1307C94.3544 94.0951 94.3709 94.0618 94.3934 94.0327C94.4159 94.0036 94.444 93.9793 94.476 93.9612L99.006 91.33C99.0377 91.3114 99.0727 91.2993 99.1091 91.2943C99.1455 91.2893 99.1825 91.2916 99.218 91.3009C99.2536 91.3103 99.2869 91.3265 99.3161 91.3488C99.3454 91.3711 99.37 91.3989 99.3885 91.4307C99.407 91.4625 99.4191 91.4976 99.4241 91.5341C99.429 91.5706 99.4268 91.6077 99.4175 91.6433C99.4081 91.6789 99.3919 91.7123 99.3697 91.7416C99.3475 91.7709 99.3197 91.7955 99.288 91.8141L94.755 94.4454C94.7137 94.4715 94.6658 94.4851 94.617 94.4845Z" fill="#E0E0E0"/>
<path d="M97.149 96.5293C97.0997 96.5291 97.0513 96.5159 97.0087 96.4911C96.966 96.4663 96.9306 96.4307 96.906 96.3879C96.8873 96.3563 96.8751 96.3211 96.8701 96.2847C96.8651 96.2482 96.8674 96.2111 96.8769 96.1755C96.8864 96.1399 96.9029 96.1066 96.9254 96.0775C96.9479 96.0484 96.976 96.0241 97.008 96.006L101.538 93.3748C101.602 93.3373 101.678 93.3269 101.75 93.3458C101.822 93.3646 101.883 93.4113 101.92 93.4755C101.958 93.5397 101.968 93.6162 101.949 93.6881C101.931 93.76 101.884 93.8214 101.82 93.8589L97.287 96.4902C97.2457 96.5163 97.1978 96.5299 97.149 96.5293Z" fill="#E0E0E0"/>
<path d="M99.345 98.935C99.2957 98.9348 99.2473 98.9216 99.2046 98.8968C99.162 98.872 99.1266 98.8365 99.102 98.7937C99.0832 98.762 99.071 98.7269 99.066 98.6904C99.061 98.6539 99.0634 98.6168 99.0729 98.5812C99.0824 98.5457 99.0989 98.5123 99.1214 98.4832C99.1439 98.4542 99.172 98.4299 99.204 98.4118L103.734 95.7805C103.766 95.762 103.801 95.7498 103.837 95.7449C103.873 95.7399 103.911 95.7421 103.946 95.7515C103.982 95.7608 104.015 95.7771 104.044 95.7994C104.073 95.8216 104.098 95.8495 104.116 95.8813C104.135 95.913 104.147 95.9482 104.152 95.9847C104.157 96.0211 104.155 96.0582 104.145 96.0938C104.136 96.1294 104.12 96.1628 104.098 96.1922C104.075 96.2215 104.048 96.2461 104.016 96.2647L99.483 98.8959C99.4417 98.9221 99.3938 98.9357 99.345 98.935Z" fill="#E0E0E0"/>
<path d="M101.1 101.659C101.038 101.66 100.978 101.639 100.929 101.602C100.88 101.564 100.845 101.511 100.829 101.451C100.814 101.391 100.818 101.328 100.842 101.271C100.866 101.214 100.908 101.167 100.962 101.136L105.492 98.502C105.556 98.4649 105.633 98.455 105.705 98.4744C105.776 98.4939 105.837 98.5411 105.874 98.6057C105.911 98.6703 105.921 98.747 105.902 98.8189C105.883 98.8908 105.835 98.952 105.771 98.9891L101.241 101.62C101.198 101.646 101.15 101.66 101.1 101.659Z" fill="#E0E0E0"/>
<path d="M102.984 104.33C102.935 104.328 102.887 104.314 102.845 104.289C102.803 104.265 102.767 104.23 102.741 104.188C102.705 104.124 102.695 104.048 102.714 103.977C102.733 103.905 102.78 103.844 102.843 103.807L107.376 101.172C107.44 101.135 107.517 101.125 107.589 101.145C107.66 101.164 107.721 101.211 107.758 101.276C107.795 101.341 107.805 101.417 107.786 101.489C107.767 101.561 107.719 101.622 107.655 101.659L103.125 104.291C103.082 104.317 103.034 104.33 102.984 104.33Z" fill="#E0E0E0"/>
<path d="M107.787 105.515C108.242 105.334 108.726 105.239 109.215 105.235C109.411 105.233 109.607 105.251 109.8 105.289C109.948 105.317 110.092 105.362 110.229 105.424C110.286 105.454 110.31 105.488 110.307 105.527C110.303 105.549 110.294 105.57 110.281 105.587C110.267 105.605 110.249 105.619 110.229 105.629L109.776 105.891C109.714 105.93 109.643 105.954 109.569 105.96C109.499 105.967 109.429 105.967 109.359 105.96C109.168 105.931 108.974 105.931 108.783 105.96C108.533 106.004 108.294 106.096 108.078 106.23C107.976 106.287 107.88 106.356 107.793 106.435C107.726 106.495 107.671 106.567 107.631 106.648C107.606 106.712 107.606 106.783 107.631 106.847C107.662 106.919 107.717 106.977 107.787 107.012C107.879 107.066 107.981 107.1 108.087 107.111C108.219 107.116 108.352 107.102 108.48 107.069C108.66 107.027 108.838 106.973 109.011 106.907C109.215 106.835 109.464 106.745 109.752 106.636C110.03 106.531 110.315 106.442 110.604 106.372C110.837 106.314 111.075 106.282 111.315 106.275C111.517 106.269 111.719 106.293 111.915 106.345C112.106 106.396 112.29 106.473 112.461 106.573C112.609 106.652 112.737 106.764 112.836 106.901C112.916 107.015 112.957 107.152 112.95 107.292C112.938 107.447 112.882 107.596 112.791 107.722C112.67 107.891 112.522 108.04 112.353 108.161L112.791 108.417C112.813 108.423 112.831 108.436 112.845 108.455C112.858 108.473 112.866 108.495 112.866 108.517C112.866 108.54 112.858 108.562 112.845 108.58C112.831 108.598 112.813 108.611 112.791 108.618L112.269 108.919C112.216 108.948 112.156 108.962 112.095 108.961C112.034 108.963 111.974 108.948 111.921 108.919L111.48 108.663C111.254 108.759 111.02 108.836 110.781 108.892C110.549 108.947 110.314 108.984 110.076 109C109.854 109.013 109.63 109.003 109.41 108.97C109.208 108.938 109.013 108.875 108.831 108.783C108.777 108.756 108.75 108.723 108.753 108.684C108.757 108.662 108.766 108.641 108.779 108.623C108.793 108.606 108.811 108.591 108.831 108.582L109.284 108.32C109.351 108.285 109.424 108.263 109.5 108.257C109.571 108.247 109.642 108.247 109.713 108.257C109.805 108.273 109.898 108.284 109.992 108.29C110.099 108.298 110.207 108.293 110.313 108.275C110.442 108.253 110.57 108.221 110.694 108.179C110.851 108.121 111.002 108.05 111.147 107.965C111.267 107.896 111.383 107.817 111.492 107.731C111.579 107.666 111.653 107.586 111.711 107.493C111.753 107.426 111.772 107.347 111.765 107.268C111.753 107.226 111.732 107.187 111.704 107.153C111.675 107.12 111.64 107.093 111.6 107.075C111.501 107.02 111.389 106.992 111.276 106.994C111.13 106.997 110.986 107.02 110.847 107.063C110.682 107.108 110.487 107.172 110.268 107.256C110.049 107.34 109.791 107.43 109.494 107.532C109.248 107.62 108.998 107.693 108.744 107.752C108.526 107.801 108.304 107.828 108.081 107.833C107.666 107.838 107.257 107.726 106.902 107.511C106.755 107.434 106.629 107.323 106.533 107.187C106.46 107.075 106.42 106.944 106.419 106.811C106.422 106.667 106.466 106.527 106.545 106.408C106.642 106.257 106.762 106.123 106.902 106.011L106.464 105.755C106.442 105.749 106.423 105.735 106.41 105.717C106.397 105.699 106.389 105.677 106.389 105.654C106.389 105.632 106.397 105.61 106.41 105.592C106.423 105.574 106.442 105.56 106.464 105.554L106.986 105.253C107.04 105.225 107.1 105.212 107.16 105.214C107.22 105.211 107.28 105.225 107.334 105.253L107.787 105.515Z" fill="#2AB691"/>
<path d="M94.35 114.84L97.539 116.683L97.995 116.419L94.806 114.575L94.35 114.84Z" fill="#455A64"/>
<path d="M97.89 112.792L101.079 114.635L101.535 114.371L98.346 112.524L97.89 112.792Z" fill="#455A64"/>
<path d="M100.86 111.072L104.049 112.918L104.346 112.747L101.157 110.9L100.86 111.072Z" fill="#455A64"/>
<path d="M96.168 113.787L99.357 115.634L99.585 115.501L96.396 113.655L96.168 113.787Z" fill="#455A64"/>
<path d="M98.664 112.341L101.853 114.187L102.081 114.055L98.892 112.209L98.664 112.341Z" fill="#455A64"/>
<path d="M100.275 111.412L103.464 113.255L103.692 113.123L100.503 111.276L100.275 111.412Z" fill="#455A64"/>
<path d="M95.163 114.368L98.352 116.214L99.165 115.742L95.976 113.899L95.163 114.368Z" fill="#455A64"/>
<path d="M96.789 113.426L99.978 115.273L100.794 114.801L97.605 112.954L96.789 113.426Z" fill="#455A64"/>
<path d="M99.231 112.013L102.42 113.859L102.978 113.538L99.789 111.691L99.231 112.013Z" fill="#455A64"/>
<path d="M86.796 119.209L89.985 121.056L90.444 120.791L87.255 118.945L86.796 119.209Z" fill="#455A64"/>
<path d="M90.336 117.161L93.525 119.008L93.984 118.743L90.795 116.897L90.336 117.161Z" fill="#455A64"/>
<path d="M93.306 115.441L96.495 117.288L96.954 117.023L93.765 115.177L93.306 115.441Z" fill="#455A64"/>
<path d="M88.614 118.16L91.803 120.003L92.031 119.871L88.842 118.027L88.614 118.16Z" fill="#455A64"/>
<path d="M91.092 116.722L94.281 118.569L94.512 118.436L91.323 116.59L91.092 116.722Z" fill="#455A64"/>
<path d="M92.721 115.781L95.91 117.627L96.141 117.495L92.952 115.649L92.721 115.781Z" fill="#455A64"/>
<path d="M87.609 118.74L90.798 120.586L91.401 120.238L88.212 118.391L87.609 118.74Z" fill="#455A64"/>
<path d="M89.238 117.799L92.427 119.642L93.09 119.26L89.901 117.414L89.238 117.799Z" fill="#455A64"/>
<path d="M91.707 116.367L94.896 118.214L95.523 117.853L92.334 116.01L91.707 116.367Z" fill="#455A64"/>
<path d="M101.613 110.636L104.802 112.479L105.261 112.215L102.072 110.368L101.613 110.636Z" fill="#455A64"/>
<path d="M102.45 110.152L105.639 111.998L105.867 111.866L102.678 110.019L102.45 110.152Z" fill="#455A64"/>
<path d="M104.001 109.256L107.19 111.099L107.418 110.967L104.229 109.123L104.001 109.256Z" fill="#455A64"/>
<path d="M103.116 109.767L106.305 111.61L106.959 111.231L103.77 109.388L103.116 109.767Z" fill="#455A64"/>
</svg>
